<svg width="256" height="54" viewBox="0 0 256 54" fill="none" xmlns="http://www.w3.org/2000/svg">
<line y1="53.5" x2="256" y2="53.5" stroke="url(#paint0_linear_539_290)"/>
<path d="M3.05786 40V16.816H19.6899V20.596H7.91786V26.536H18.3579V30.28H7.91786V36.256H19.6899V40H3.05786ZM23.0618 40V16.816H27.2738L38.2538 32.26V16.816H43.1138V40H38.9018L27.9218 24.556V40H23.0618ZM58.3741 40.36C54.4861 40.36 51.5341 39.34 49.5181 37.3C47.5021 35.26 46.4941 32.428 46.4941 28.804C46.4941 24.964 47.5141 21.952 49.5541 19.768C51.5941 17.56 54.6301 16.456 58.6621 16.456C60.0541 16.456 61.3141 16.54 62.4421 16.708C63.5701 16.852 64.6381 17.092 65.6461 17.428V21.604C64.6381 21.244 63.5701 20.992 62.4421 20.848C61.3381 20.68 60.1981 20.596 59.0221 20.596C56.2621 20.596 54.3061 21.28 53.1541 22.648C52.0021 23.992 51.4261 26.044 51.4261 28.804C51.4261 33.772 53.7661 36.256 58.4461 36.256C59.2621 36.256 60.0541 36.196 60.8221 36.076C61.6141 35.932 62.3101 35.752 62.9101 35.536V30.136H57.5101V27.04H67.0141V38.38C66.2221 38.884 65.1181 39.34 63.7021 39.748C62.2861 40.156 60.5101 40.36 58.3741 40.36ZM70.3821 40V16.816H75.2421V40H70.3821Z" fill="url(#paint1_linear_539_290)"/>
<path d="M86.5371 40L95.3931 16.816H100.721L109.541 40H104.501L102.305 34.42H93.7731L91.6131 40H86.5371ZM94.4931 30.676H101.585L98.0211 21.352L94.4931 30.676ZM112.921 40V16.816H122.641C126.121 16.816 128.737 17.716 130.489 19.516C132.265 21.292 133.153 24.292 133.153 28.516C133.153 32.5 132.277 35.416 130.525 37.264C128.797 39.088 126.169 40 122.641 40H112.921ZM117.781 36.256H121.957C123.325 36.256 124.477 36.052 125.413 35.644C126.349 35.212 127.045 34.444 127.501 33.34C127.981 32.212 128.221 30.604 128.221 28.516C128.221 26.428 128.005 24.832 127.573 23.728C127.141 22.624 126.469 21.868 125.557 21.46C124.645 21.052 123.445 20.848 121.957 20.848H117.781V36.256ZM143.241 40L134.385 16.816H139.461L145.869 34.564L152.313 16.816H157.389L148.569 40H143.241ZM159.855 40V16.816H164.715V40H159.855ZM176.02 40.36C174.532 40.36 173.14 40.252 171.844 40.036C170.572 39.82 169.468 39.508 168.532 39.1V34.816C169.588 35.248 170.728 35.596 171.952 35.86C173.176 36.124 174.376 36.256 175.552 36.256C177.232 36.256 178.468 36.1 179.26 35.788C180.052 35.476 180.448 34.768 180.448 33.664C180.448 32.968 180.28 32.416 179.944 32.008C179.608 31.6 179.02 31.24 178.18 30.928C177.364 30.592 176.2 30.22 174.688 29.812C172.264 29.14 170.56 28.3 169.576 27.292C168.592 26.284 168.1 24.892 168.1 23.116C168.1 20.98 168.88 19.336 170.44 18.184C172 17.032 174.268 16.456 177.244 16.456C178.636 16.456 179.932 16.552 181.132 16.744C182.332 16.936 183.304 17.164 184.048 17.428V21.712C182.08 20.968 180.028 20.596 177.892 20.596C176.38 20.596 175.192 20.764 174.328 21.1C173.464 21.412 173.032 22.084 173.032 23.116C173.032 23.716 173.188 24.196 173.5 24.556C173.812 24.916 174.34 25.24 175.084 25.528C175.852 25.816 176.92 26.14 178.288 26.5C180.184 27.004 181.648 27.604 182.68 28.3C183.712 28.996 184.42 29.788 184.804 30.676C185.212 31.564 185.416 32.56 185.416 33.664C185.416 35.68 184.648 37.3 183.112 38.524C181.576 39.748 179.212 40.36 176.02 40.36ZM199.336 40.36C191.824 40.36 188.068 36.412 188.068 28.516C188.068 24.268 189.016 21.196 190.912 19.3C192.808 17.404 195.616 16.456 199.336 16.456C203.056 16.456 205.864 17.404 207.76 19.3C209.656 21.196 210.604 24.268 210.604 28.516C210.604 36.412 206.848 40.36 199.336 40.36ZM199.336 36.22C201.52 36.22 203.116 35.596 204.124 34.348C205.156 33.076 205.672 31.132 205.672 28.516C205.672 25.612 205.156 23.572 204.124 22.396C203.116 21.196 201.52 20.596 199.336 20.596C197.152 20.596 195.544 21.196 194.512 22.396C193.504 23.572 193 25.612 193 28.516C193 31.132 193.504 33.076 194.512 34.348C195.544 35.596 197.152 36.22 199.336 36.22ZM213.995 40V16.816H225.119C227.783 16.816 229.739 17.524 230.987 18.94C232.235 20.332 232.859 22.216 232.859 24.592C232.859 26.152 232.451 27.496 231.635 28.624C230.843 29.752 229.715 30.568 228.251 31.072C228.635 31.384 228.935 31.72 229.151 32.08C229.391 32.44 229.631 32.92 229.871 33.52L232.679 40H227.639L224.903 33.772C224.663 33.244 224.399 32.872 224.111 32.656C223.823 32.44 223.343 32.332 222.671 32.332H218.855V40H213.995ZM218.855 28.3H223.859C225.131 28.3 226.127 28.024 226.847 27.472C227.567 26.896 227.927 25.936 227.927 24.592C227.927 23.296 227.615 22.348 226.991 21.748C226.367 21.148 225.419 20.848 224.147 20.848H218.855V28.3ZM241.49 40V31.432L233.174 16.816H238.25L243.938 27.292L249.626 16.816H254.666L246.35 31.432V40H241.49Z" fill="#6D6E71"/>
<defs>
<linearGradient id="paint0_linear_539_290" x1="0" y1="54.5" x2="256" y2="54.5" gradientUnits="userSpaceOnUse">
<stop stop-color="#800020"/>
<stop offset="1" stop-color="#F26522"/>
</linearGradient>
<linearGradient id="paint1_linear_539_290" x1="1" y1="27" x2="256" y2="27" gradientUnits="userSpaceOnUse">
<stop stop-color="#F26522"/>
<stop offset="1" stop-color="#CFD1D7"/>
</linearGradient>
</defs>
</svg>
